<svg width="235" height="48" viewBox="0 0 235 48" fill="none" xmlns="http://www.w3.org/2000/svg">
<path d="M14.291 37.4003C10.4748 37.4003 7.48578 36.4796 5.32411 34.6382C3.18913 32.7701 2.05492 30.0747 1.92148 26.5519C1.8948 25.8314 1.88145 24.6571 1.88145 23.0292C1.88145 21.3746 1.8948 20.1737 1.92148 19.4264C2.05492 15.9571 3.21582 13.2884 5.40417 11.4203C7.59253 9.52546 10.5548 8.57807 14.291 8.57807C16.6395 8.57807 18.7478 8.97837 20.6159 9.77899C22.484 10.5529 23.9518 11.6738 25.0193 13.1416C26.1135 14.5827 26.6739 16.2773 26.7006 18.2255V18.3056C26.7006 18.5191 26.6072 18.7059 26.4204 18.866C26.2603 18.9994 26.0735 19.0662 25.86 19.0662H20.4558C20.1089 19.0662 19.842 18.9994 19.6552 18.866C19.4684 18.7059 19.3082 18.4257 19.1748 18.0254C18.8012 16.6643 18.2141 15.7169 17.4134 15.1832C16.6128 14.6227 15.5587 14.3425 14.251 14.3425C11.1019 14.3425 9.47398 16.1039 9.36723 19.6266C9.34054 20.3471 9.3272 21.4547 9.3272 22.9492C9.3272 24.4436 9.34054 25.5779 9.36723 26.3518C9.47398 29.8745 11.1019 31.6359 14.251 31.6359C15.5587 31.6359 16.6262 31.3556 17.4535 30.7952C18.2808 30.2081 18.8546 29.2607 19.1748 27.953C19.2815 27.5527 19.4283 27.2858 19.6151 27.1524C19.8019 26.9923 20.0822 26.9122 20.4558 26.9122H25.86C26.1001 26.9122 26.3003 26.9923 26.4604 27.1524C26.6472 27.3125 26.7273 27.5127 26.7006 27.7529C26.6739 29.701 26.1135 31.409 25.0193 32.8768C23.9518 34.3179 22.484 35.4388 20.6159 36.2394C18.7478 37.0133 16.6395 37.4003 14.291 37.4003Z" fill="#85CAF1"/>
<path d="M31.8244 37C31.5575 37 31.3174 36.9066 31.1039 36.7198C30.9171 36.5063 30.8236 36.2661 30.8236 35.9992V9.97915C30.8236 9.68559 30.9171 9.4454 31.1039 9.25859C31.3174 9.07178 31.5575 8.97837 31.8244 8.97837H37.1085C37.4021 8.97837 37.6422 9.07178 37.8291 9.25859C38.0159 9.4454 38.1093 9.68559 38.1093 9.97915V30.9553H50.2386C50.5322 30.9553 50.7724 31.0621 50.9592 31.2756C51.146 31.4624 51.2394 31.7026 51.2394 31.9961V35.9992C51.2394 36.2661 51.146 36.5063 50.9592 36.7198C50.7724 36.9066 50.5322 37 50.2386 37H31.8244ZM55.71 37C55.4432 37 55.203 36.9066 54.9895 36.7198C54.8027 36.5063 54.7093 36.2661 54.7093 35.9992V9.97915C54.7093 9.68559 54.8027 9.4454 54.9895 9.25859C55.203 9.07178 55.4432 8.97837 55.71 8.97837H74.4045C74.698 8.97837 74.9382 9.07178 75.125 9.25859C75.3118 9.4454 75.4052 9.68559 75.4052 9.97915V13.7421C75.4052 14.0089 75.3118 14.2491 75.125 14.4626C74.9382 14.6494 74.698 14.7428 74.4045 14.7428H61.6346V20.147H73.5238C73.8173 20.147 74.0575 20.2537 74.2443 20.4672C74.4312 20.6541 74.5246 20.8942 74.5246 21.1878V24.6705C74.5246 24.9374 74.4312 25.1775 74.2443 25.391C74.0575 25.5779 73.8173 25.6713 73.5238 25.6713H61.6346V31.2356H74.7247C75.0183 31.2356 75.2585 31.329 75.4453 31.5158C75.6321 31.7026 75.7255 31.9428 75.7255 32.2363V35.9992C75.7255 36.2661 75.6321 36.5063 75.4453 36.7198C75.2585 36.9066 75.0183 37 74.7247 37H55.71ZM81.2766 37C81.0098 37 80.7696 36.9066 80.5561 36.7198C80.3693 36.5063 80.2759 36.2661 80.2759 35.9992V9.97915C80.2759 9.68559 80.3693 9.4454 80.5561 9.25859C80.7696 9.07178 81.0098 8.97837 81.2766 8.97837H92.165C95.6611 8.97837 98.3832 9.77899 100.331 11.3802C102.306 12.9548 103.294 15.1965 103.294 18.1054C103.294 19.9735 102.853 21.5614 101.973 22.8691C101.092 24.1768 99.8777 25.1775 98.3298 25.8714L103.814 35.719C103.894 35.8791 103.934 36.0259 103.934 36.1594C103.934 36.3728 103.841 36.573 103.654 36.7598C103.494 36.9199 103.307 37 103.093 37H97.7694C96.9954 37 96.4484 36.6397 96.1281 35.9192L91.5646 27.1124H87.4814V35.9992C87.4814 36.2928 87.3747 36.533 87.1612 36.7198C86.9744 36.9066 86.7342 37 86.4406 37H81.2766ZM92.085 21.428C93.3126 21.428 94.2467 21.1344 94.8871 20.5473C95.5276 19.9335 95.8479 19.0928 95.8479 18.0254C95.8479 16.9579 95.5276 16.1172 94.8871 15.5034C94.2733 14.8629 93.3393 14.5427 92.085 14.5427H87.4814V21.428H92.085ZM108.954 37C108.687 37 108.447 36.9066 108.234 36.7198C108.047 36.5063 107.953 36.2661 107.953 35.9992V9.97915C107.953 9.68559 108.047 9.4454 108.234 9.25859C108.447 9.07178 108.687 8.97837 108.954 8.97837H113.198C113.865 8.97837 114.318 9.2319 114.559 9.73896L124.326 25.1108V9.97915C124.326 9.68559 124.42 9.4454 124.606 9.25859C124.82 9.07178 125.06 8.97837 125.327 8.97837H130.131C130.424 8.97837 130.664 9.07178 130.851 9.25859C131.038 9.4454 131.131 9.68559 131.131 9.97915V35.9592C131.131 36.2528 131.038 36.5063 130.851 36.7198C130.664 36.9066 130.424 37 130.131 37H125.847C125.26 37 124.82 36.7465 124.526 36.2394L114.759 21.428V35.9992C114.759 36.2661 114.665 36.5063 114.479 36.7198C114.292 36.9066 114.052 37 113.758 37H108.954ZM137.726 37C137.46 37 137.219 36.9066 137.006 36.7198C136.819 36.5063 136.726 36.2661 136.726 35.9992V9.97915C136.726 9.68559 136.819 9.4454 137.006 9.25859C137.219 9.07178 137.46 8.97837 137.726 8.97837H143.091C143.384 8.97837 143.624 9.07178 143.811 9.25859C144.025 9.4454 144.131 9.68559 144.131 9.97915V35.9992C144.131 36.2928 144.025 36.533 143.811 36.7198C143.624 36.9066 143.384 37 143.091 37H137.726Z" fill="#FFFDFD"/>
</svg>
