<svg width="41" height="41" viewBox="0 0 41 41" fill="none" xmlns="http://www.w3.org/2000/svg">
<path d="M20.5 0C14.9271 0 14.2326 0.0269096 12.0517 0.119171C9.86173 0.22681 8.38042 0.566383 7.07338 1.07382C5.70543 1.59026 4.46656 2.39882 3.44315 3.44315C2.39591 4.46417 1.58689 5.70373 1.07382 7.07338C0.566383 8.38042 0.22681 9.86173 0.119171 12.0517C0.0205026 14.2339 0 14.9271 0 20.5C0 26.0729 0.0269096 26.7674 0.119171 28.9483C0.22681 31.1319 0.566383 32.6196 1.07382 33.9266C1.59026 35.2946 2.39882 36.5334 3.44315 37.5569C4.46417 38.6041 5.70373 39.4131 7.07338 39.9262C8.38042 40.4272 9.86814 40.7732 12.0517 40.8808C14.2339 40.9795 14.9271 41 20.5 41C26.0729 41 26.7674 40.9731 28.9483 40.8808C31.1319 40.7732 32.6196 40.4259 33.9266 39.9262C35.2946 39.4097 36.5334 38.6012 37.5569 37.5569C38.6054 36.5369 39.4147 35.2971 39.9262 33.9266C40.4272 32.6196 40.7732 31.1319 40.8808 28.9483C40.9795 26.7661 41 26.0729 41 20.5C41 14.9271 40.9731 14.2326 40.8808 12.0517C40.7732 9.86814 40.4259 8.37273 39.9262 7.07338C39.4097 5.70543 38.6012 4.46657 37.5569 3.44315C36.5369 2.39456 35.2971 1.58533 33.9266 1.07382C32.6196 0.566383 31.1319 0.22681 28.9483 0.119171C26.7661 0.0205026 26.0729 0 20.5 0ZM20.5 3.69046C25.9729 3.69046 26.6264 3.71737 28.7894 3.80963C30.7846 3.90318 31.8712 4.23634 32.5927 4.51825C33.4846 4.84748 34.2918 5.37148 34.9556 6.0521C35.6351 6.71309 36.1571 7.51848 36.483 8.40861C36.7649 9.13005 37.0981 10.2167 37.1916 12.2118C37.2839 14.3749 37.3108 15.0297 37.3108 20.5013C37.3108 25.9729 37.2839 26.6277 37.184 28.7907C37.0763 30.7859 36.7432 31.8725 36.4625 32.594C36.0743 33.5563 35.6411 34.229 34.9261 34.9569C34.2601 35.6332 33.4534 36.1547 32.5632 36.4843C31.8507 36.7662 30.7487 37.0994 28.7459 37.1929C26.5713 37.2852 25.9306 37.3121 20.4436 37.3121C14.9566 37.3121 14.3172 37.2852 12.1401 37.1852C10.1449 37.0776 9.04419 36.7444 8.32276 36.4638C7.34889 36.0755 6.68127 35.6424 5.96625 34.9274C5.24481 34.206 4.78607 33.5191 4.4324 32.5645C4.14536 31.852 3.81732 30.75 3.71096 28.7472C3.63792 26.5982 3.60333 25.9319 3.60333 20.4705C3.60333 15.0117 3.63792 14.3441 3.71096 12.1683C3.81732 10.1654 4.14536 9.06598 4.4324 8.35095C4.78607 7.3758 5.24609 6.70946 5.96625 5.98803C6.67999 5.27428 7.34889 4.81298 8.32276 4.45162C9.04419 4.17099 10.118 3.83782 12.1209 3.73787C14.2954 3.65971 14.9361 3.63152 20.4154 3.63152L20.5 3.69046ZM20.5 9.97834C19.1178 9.97784 17.749 10.2497 16.472 10.7784C15.1949 11.3071 14.0345 12.0823 13.0571 13.0597C12.0798 14.0371 11.3046 15.1974 10.7759 16.4745C10.2471 17.7516 9.97527 19.1204 9.97578 20.5026C9.97527 21.8848 10.2471 23.2535 10.7759 24.5306C11.3046 25.8077 12.0798 26.9681 13.0571 27.9454C14.0345 28.9228 15.1949 29.698 16.472 30.2267C17.749 30.7554 19.1178 31.0273 20.5 31.0268C21.8822 31.0273 23.251 30.7554 24.528 30.2267C25.8051 29.698 26.9655 28.9228 27.9429 27.9454C28.9202 26.9681 29.6954 25.8077 30.2241 24.5306C30.7529 23.2535 31.0247 21.8848 31.0242 20.5026C31.0247 19.1204 30.7529 17.7516 30.2241 16.4745C29.6954 15.1974 28.9202 14.0371 27.9429 13.0597C26.9655 12.0823 25.8051 11.3071 24.528 10.7784C23.251 10.2497 21.8822 9.97784 20.5 9.97834V9.97834ZM20.5 27.3363C16.7224 27.3363 13.6662 24.2802 13.6662 20.5026C13.6662 16.725 16.7224 13.6688 20.5 13.6688C24.2776 13.6688 27.3338 16.725 27.3338 20.5026C27.3338 24.2802 24.2776 27.3363 20.5 27.3363ZM33.9087 9.55804C33.908 10.2111 33.6481 10.8372 33.186 11.2988C32.724 11.7604 32.0976 12.0196 31.4445 12.0196C31.1216 12.0196 30.8018 11.956 30.5035 11.8324C30.2052 11.7089 29.9341 11.5277 29.7057 11.2994C29.4774 11.0711 29.2963 10.8 29.1727 10.5016C29.0491 10.2033 28.9855 9.88353 28.9855 9.5606C28.9855 9.23768 29.0491 8.91792 29.1727 8.61957C29.2963 8.32123 29.4774 8.05015 29.7057 7.82181C29.9341 7.59347 30.2052 7.41234 30.5035 7.28876C30.8018 7.16518 31.1216 7.10158 31.4445 7.10158C32.799 7.10158 33.9087 8.20359 33.9087 9.55804V9.55804Z" fill="#EEEEEE"/>
</svg>
