<svg width="47" height="33" viewBox="0 0 47 33" fill="none" xmlns="http://www.w3.org/2000/svg">
<path d="M18.6502 22.5747L31.3388 16.0277L18.6502 9.40382V22.5747ZM23.5021 0.00137483C26.4393 0.00137483 29.2759 0.0407866 32.0121 0.11961C34.7483 0.198434 36.7543 0.281381 38.0301 0.368454L39.9439 0.47844C39.9613 0.47844 40.1082 0.49173 40.3845 0.51831C40.6144 0.536183 40.8209 0.56368 41.0247 0.602175L40.9889 0.596675C41.1119 0.623255 41.3175 0.662667 41.6057 0.714911C41.8879 0.76303 42.1399 0.835895 42.3781 0.932133L42.3533 0.923884C42.5635 1.01096 42.8086 1.12461 43.0885 1.26484C43.3983 1.42157 43.6654 1.59205 43.9132 1.78315L43.9022 1.7749C44.1817 1.99213 44.4295 2.21897 44.6581 2.46507L44.6622 2.46919C44.8026 2.6163 44.9362 2.7744 45.0587 2.93938L45.0683 2.95313C45.3465 3.39033 45.6025 3.89626 45.8077 4.42557L45.8283 4.48606C46.1588 5.25459 46.4025 6.14548 46.5181 7.07761L46.5236 7.12573C46.6631 8.24301 46.7733 9.43453 46.8541 10.7003C46.9348 11.966 46.983 12.9559 46.9986 13.6699V18.2783L47 18.6399C47 21.1875 46.8279 23.6965 46.4947 26.1534L46.5264 25.8674C46.4172 26.7855 46.1866 27.6852 45.8407 28.5428L45.8655 28.4727C45.6579 29.053 45.3706 29.6018 45.0119 30.1032L45.0257 30.0826L44.6594 30.5226C44.4296 30.7701 44.1801 30.9986 43.9132 31.2058L43.8994 31.2168C43.6556 31.4063 43.392 31.569 43.1133 31.7022L43.0871 31.7132C42.8072 31.8442 42.5621 31.9542 42.3519 32.0431C42.1181 32.1374 41.8748 32.2065 41.6263 32.2493L41.6043 32.2521C41.3161 32.3043 41.1064 32.3437 40.9751 32.3703C40.8438 32.3969 40.6428 32.423 40.3721 32.4487C40.1013 32.4744 39.9572 32.4876 39.9397 32.4886C35.5569 32.8295 30.0786 33 23.5048 33C19.8857 32.9652 16.7429 32.9083 14.0765 32.8295C11.41 32.7507 9.65737 32.6852 8.81844 32.6329L7.5325 32.5229L6.58801 32.4129C6.07686 32.3514 5.5701 32.2578 5.07077 32.1325L5.15614 32.1504C4.67906 32.0035 4.21675 31.8124 3.7752 31.5798L3.81926 31.6004C3.26723 31.3316 2.76637 30.9687 2.33919 30.5281L2.33782 30.5267C2.19612 30.3782 2.0637 30.2212 1.9413 30.0565L1.93166 30.0427C1.63813 29.5769 1.39052 29.0838 1.19231 28.5703L1.17166 28.5098C0.822107 27.6822 0.589941 26.8099 0.481882 25.9183L0.476375 25.8701C0.336858 24.7529 0.226714 23.5613 0.145941 22.2956C0.0651688 21.0298 0.0169806 20.04 0.00137681 19.326V14.7175L0 14.356C0 11.8084 0.172101 9.29934 0.505288 6.84252L0.473621 7.12848C0.582813 6.21035 0.813369 5.31071 1.15927 4.45307L1.13449 4.52318C1.35753 3.90864 1.64115 3.37658 1.98811 2.89264L1.97434 2.91326L2.34057 2.47332C2.57325 2.2231 2.82107 1.99625 3.0868 1.79003L3.10057 1.77903C3.33738 1.5948 3.6031 1.4257 3.88534 1.28134L3.91426 1.26759C4.19421 1.12828 4.43928 1.01462 4.64947 0.926634C4.88331 0.832369 5.12654 0.763238 5.37505 0.72041L5.39708 0.71766C5.68529 0.665417 5.89089 0.626005 6.01389 0.599425C6.18048 0.566429 6.387 0.538933 6.59765 0.522435L6.6183 0.52106C6.89825 0.49448 7.04511 0.48119 7.05888 0.48119C11.4491 0.160397 16.9315 0 23.5062 0L23.5021 0.00137483Z" fill="#EEEEEE"/>
</svg>
