<svg width="604" height="576" viewBox="0 0 604 576" fill="none" xmlns="http://www.w3.org/2000/svg">
<ellipse cx="52.1967" cy="529.444" rx="52.1432" ry="46.5565" fill="#0054AA"/>
<path d="M438.565 10.0828C221.628 -46.4599 97.7473 157.348 167.736 296.481C237.725 435.615 158.862 424.273 221.628 424.273C284.394 424.273 347.863 435.569 494.547 377.413C641.231 319.256 655.503 66.6255 438.565 10.0828Z" fill="#0054AA"/>
<ellipse cx="79.1995" cy="425.157" rx="27.0028" ry="26.0716" fill="#FFB932"/>
<path d="M253.52 118.117C256.453 118.117 259.027 118.69 261.24 119.837C263.48 120.984 265.2 122.624 266.4 124.757C267.627 126.864 268.24 129.317 268.24 132.117C268.24 134.917 267.627 137.37 266.4 139.477C265.2 141.557 263.48 143.17 261.24 144.317C259.027 145.464 256.453 146.037 253.52 146.037H243.76V118.117H253.52ZM253.32 141.277C256.253 141.277 258.52 140.477 260.12 138.877C261.72 137.277 262.52 135.024 262.52 132.117C262.52 129.21 261.72 126.944 260.12 125.317C258.52 123.664 256.253 122.837 253.32 122.837H249.36V141.277H253.32ZM293.032 134.477C293.032 135.277 292.979 135.997 292.872 136.637H276.672C276.805 138.237 277.365 139.49 278.352 140.397C279.339 141.304 280.552 141.757 281.992 141.757C284.072 141.757 285.552 140.864 286.432 139.077H292.472C291.832 141.21 290.605 142.97 288.792 144.357C286.979 145.717 284.752 146.397 282.112 146.397C279.979 146.397 278.059 145.93 276.352 144.997C274.672 144.037 273.352 142.69 272.392 140.957C271.459 139.224 270.992 137.224 270.992 134.957C270.992 132.664 271.459 130.65 272.392 128.917C273.325 127.184 274.632 125.85 276.312 124.917C277.992 123.984 279.925 123.517 282.112 123.517C284.219 123.517 286.099 123.97 287.752 124.877C289.432 125.784 290.725 127.077 291.632 128.757C292.565 130.41 293.032 132.317 293.032 134.477ZM287.232 132.877C287.205 131.437 286.685 130.29 285.672 129.437C284.659 128.557 283.419 128.117 281.952 128.117C280.565 128.117 279.392 128.544 278.432 129.397C277.499 130.224 276.925 131.384 276.712 132.877H287.232ZM305.599 146.397C303.786 146.397 302.159 146.077 300.719 145.437C299.279 144.77 298.133 143.877 297.279 142.757C296.453 141.637 295.999 140.397 295.919 139.037H301.559C301.666 139.89 302.079 140.597 302.799 141.157C303.546 141.717 304.466 141.997 305.559 141.997C306.626 141.997 307.453 141.784 308.039 141.357C308.653 140.93 308.959 140.384 308.959 139.717C308.959 138.997 308.586 138.464 307.839 138.117C307.119 137.744 305.959 137.344 304.359 136.917C302.706 136.517 301.346 136.104 300.279 135.677C299.239 135.25 298.333 134.597 297.559 133.717C296.813 132.837 296.439 131.65 296.439 130.157C296.439 128.93 296.786 127.81 297.479 126.797C298.199 125.784 299.213 124.984 300.519 124.397C301.853 123.81 303.413 123.517 305.199 123.517C307.839 123.517 309.946 124.184 311.519 125.517C313.093 126.824 313.959 128.597 314.119 130.837H308.759C308.679 129.957 308.306 129.264 307.639 128.757C306.999 128.224 306.133 127.957 305.039 127.957C304.026 127.957 303.239 128.144 302.679 128.517C302.146 128.89 301.879 129.41 301.879 130.077C301.879 130.824 302.253 131.397 302.999 131.797C303.746 132.17 304.906 132.557 306.479 132.957C308.079 133.357 309.399 133.77 310.439 134.197C311.479 134.624 312.373 135.29 313.119 136.197C313.893 137.077 314.293 138.25 314.319 139.717C314.319 140.997 313.959 142.144 313.239 143.157C312.546 144.17 311.533 144.97 310.199 145.557C308.893 146.117 307.359 146.397 305.599 146.397ZM317.476 134.957C317.476 132.664 317.943 130.664 318.876 128.957C319.81 127.224 321.103 125.89 322.756 124.957C324.41 123.997 326.303 123.517 328.436 123.517C331.183 123.517 333.45 124.21 335.236 125.597C337.05 126.957 338.263 128.877 338.876 131.357H332.836C332.516 130.397 331.97 129.65 331.196 129.117C330.45 128.557 329.516 128.277 328.396 128.277C326.796 128.277 325.53 128.864 324.596 130.037C323.663 131.184 323.196 132.824 323.196 134.957C323.196 137.064 323.663 138.704 324.596 139.877C325.53 141.024 326.796 141.597 328.396 141.597C330.663 141.597 332.143 140.584 332.836 138.557H338.876C338.263 140.957 337.05 142.864 335.236 144.277C333.423 145.69 331.156 146.397 328.436 146.397C326.303 146.397 324.41 145.93 322.756 144.997C321.103 144.037 319.81 142.704 318.876 140.997C317.943 139.264 317.476 137.25 317.476 134.957ZM363.899 123.877V146.037H358.259V143.237C357.539 144.197 356.592 144.957 355.419 145.517C354.272 146.05 353.019 146.317 351.659 146.317C349.925 146.317 348.392 145.957 347.059 145.237C345.725 144.49 344.672 143.41 343.899 141.997C343.152 140.557 342.779 138.85 342.779 136.877V123.877H348.379V136.077C348.379 137.837 348.819 139.197 349.699 140.157C350.579 141.09 351.779 141.557 353.299 141.557C354.845 141.557 356.059 141.09 356.939 140.157C357.819 139.197 358.259 137.837 358.259 136.077V123.877H363.899ZM375.024 127.117C375.744 126.05 376.731 125.184 377.984 124.517C379.264 123.85 380.717 123.517 382.344 123.517C384.237 123.517 385.944 123.984 387.464 124.917C389.011 125.85 390.224 127.184 391.104 128.917C392.011 130.624 392.464 132.61 392.464 134.877C392.464 137.144 392.011 139.157 391.104 140.917C390.224 142.65 389.011 143.997 387.464 144.957C385.944 145.917 384.237 146.397 382.344 146.397C380.691 146.397 379.237 146.077 377.984 145.437C376.757 144.77 375.771 143.917 375.024 142.877V146.037H369.424V116.437H375.024V127.117ZM386.744 134.877C386.744 133.544 386.464 132.397 385.904 131.437C385.371 130.45 384.651 129.704 383.744 129.197C382.864 128.69 381.904 128.437 380.864 128.437C379.851 128.437 378.891 128.704 377.984 129.237C377.104 129.744 376.384 130.49 375.824 131.477C375.291 132.464 375.024 133.624 375.024 134.957C375.024 136.29 375.291 137.45 375.824 138.437C376.384 139.424 377.104 140.184 377.984 140.717C378.891 141.224 379.851 141.477 380.864 141.477C381.904 141.477 382.864 141.21 383.744 140.677C384.651 140.144 385.371 139.384 385.904 138.397C386.464 137.41 386.744 136.237 386.744 134.877ZM402.133 127.317C402.853 126.144 403.787 125.224 404.933 124.557C406.107 123.89 407.44 123.557 408.933 123.557V129.437H407.453C405.693 129.437 404.36 129.85 403.453 130.677C402.573 131.504 402.133 132.944 402.133 134.997V146.037H396.533V123.877H402.133V127.317ZM433.305 134.477C433.305 135.277 433.252 135.997 433.145 136.637H416.945C417.079 138.237 417.639 139.49 418.625 140.397C419.612 141.304 420.825 141.757 422.265 141.757C424.345 141.757 425.825 140.864 426.705 139.077H432.745C432.105 141.21 430.879 142.97 429.065 144.357C427.252 145.717 425.025 146.397 422.385 146.397C420.252 146.397 418.332 145.93 416.625 144.997C414.945 144.037 413.625 142.69 412.665 140.957C411.732 139.224 411.265 137.224 411.265 134.957C411.265 132.664 411.732 130.65 412.665 128.917C413.599 127.184 414.905 125.85 416.585 124.917C418.265 123.984 420.199 123.517 422.385 123.517C424.492 123.517 426.372 123.97 428.025 124.877C429.705 125.784 430.999 127.077 431.905 128.757C432.839 130.41 433.305 132.317 433.305 134.477ZM427.505 132.877C427.479 131.437 426.959 130.29 425.945 129.437C424.932 128.557 423.692 128.117 422.225 128.117C420.839 128.117 419.665 128.544 418.705 129.397C417.772 130.224 417.199 131.384 416.985 132.877H427.505ZM474.444 123.557C477.164 123.557 479.351 124.397 481.004 126.077C482.684 127.73 483.524 130.05 483.524 133.037V146.037H477.924V133.797C477.924 132.064 477.484 130.744 476.604 129.837C475.724 128.904 474.524 128.437 473.004 128.437C471.484 128.437 470.271 128.904 469.364 129.837C468.484 130.744 468.044 132.064 468.044 133.797V146.037H462.444V133.797C462.444 132.064 462.004 130.744 461.124 129.837C460.244 128.904 459.044 128.437 457.524 128.437C455.977 128.437 454.751 128.904 453.844 129.837C452.964 130.744 452.524 132.064 452.524 133.797V146.037H446.924V123.877H452.524V126.557C453.244 125.624 454.164 124.89 455.284 124.357C456.431 123.824 457.684 123.557 459.044 123.557C460.777 123.557 462.324 123.93 463.684 124.677C465.044 125.397 466.097 126.437 466.844 127.797C467.564 126.517 468.604 125.49 469.964 124.717C471.351 123.944 472.844 123.557 474.444 123.557ZM487.398 134.877C487.398 132.637 487.838 130.65 488.718 128.917C489.625 127.184 490.838 125.85 492.358 124.917C493.905 123.984 495.625 123.517 497.518 123.517C499.171 123.517 500.611 123.85 501.838 124.517C503.091 125.184 504.091 126.024 504.838 127.037V123.877H510.478V146.037H504.838V142.797C504.118 143.837 503.118 144.704 501.838 145.397C500.585 146.064 499.131 146.397 497.478 146.397C495.611 146.397 493.905 145.917 492.358 144.957C490.838 143.997 489.625 142.65 488.718 140.917C487.838 139.157 487.398 137.144 487.398 134.877ZM504.838 134.957C504.838 133.597 504.571 132.437 504.038 131.477C503.505 130.49 502.785 129.744 501.878 129.237C500.971 128.704 499.998 128.437 498.958 128.437C497.918 128.437 496.958 128.69 496.078 129.197C495.198 129.704 494.478 130.45 493.918 131.437C493.385 132.397 493.118 133.544 493.118 134.877C493.118 136.21 493.385 137.384 493.918 138.397C494.478 139.384 495.198 140.144 496.078 140.677C496.985 141.21 497.945 141.477 498.958 141.477C499.998 141.477 500.971 141.224 501.878 140.717C502.785 140.184 503.505 139.437 504.038 138.477C504.571 137.49 504.838 136.317 504.838 134.957ZM504.078 118.117L494.878 122.317V118.317L504.078 113.557V118.117ZM524.428 146.397C522.614 146.397 520.988 146.077 519.548 145.437C518.108 144.77 516.961 143.877 516.108 142.757C515.281 141.637 514.828 140.397 514.748 139.037H520.388C520.494 139.89 520.908 140.597 521.628 141.157C522.374 141.717 523.294 141.997 524.388 141.997C525.454 141.997 526.281 141.784 526.868 141.357C527.481 140.93 527.788 140.384 527.788 139.717C527.788 138.997 527.414 138.464 526.668 138.117C525.948 137.744 524.788 137.344 523.188 136.917C521.534 136.517 520.174 136.104 519.108 135.677C518.068 135.25 517.161 134.597 516.388 133.717C515.641 132.837 515.268 131.65 515.268 130.157C515.268 128.93 515.614 127.81 516.308 126.797C517.028 125.784 518.041 124.984 519.348 124.397C520.681 123.81 522.241 123.517 524.028 123.517C526.668 123.517 528.774 124.184 530.348 125.517C531.921 126.824 532.788 128.597 532.948 130.837H527.588C527.508 129.957 527.134 129.264 526.468 128.757C525.828 128.224 524.961 127.957 523.868 127.957C522.854 127.957 522.068 128.144 521.508 128.517C520.974 128.89 520.708 129.41 520.708 130.077C520.708 130.824 521.081 131.397 521.828 131.797C522.574 132.17 523.734 132.557 525.308 132.957C526.908 133.357 528.228 133.77 529.268 134.197C530.308 134.624 531.201 135.29 531.948 136.197C532.721 137.077 533.121 138.25 533.148 139.717C533.148 140.997 532.788 142.144 532.068 143.157C531.374 144.17 530.361 144.97 529.028 145.557C527.721 146.117 526.188 146.397 524.428 146.397ZM252.24 207.397C250.427 207.397 248.8 207.077 247.36 206.437C245.92 205.77 244.773 204.877 243.92 203.757C243.093 202.637 242.64 201.397 242.56 200.037H248.2C248.307 200.89 248.72 201.597 249.44 202.157C250.187 202.717 251.107 202.997 252.2 202.997C253.267 202.997 254.093 202.784 254.68 202.357C255.293 201.93 255.6 201.384 255.6 200.717C255.6 199.997 255.227 199.464 254.48 199.117C253.76 198.744 252.6 198.344 251 197.917C249.347 197.517 247.987 197.104 246.92 196.677C245.88 196.25 244.973 195.597 244.2 194.717C243.453 193.837 243.08 192.65 243.08 191.157C243.08 189.93 243.427 188.81 244.12 187.797C244.84 186.784 245.853 185.984 247.16 185.397C248.493 184.81 250.053 184.517 251.84 184.517C254.48 184.517 256.587 185.184 258.16 186.517C259.733 187.824 260.6 189.597 260.76 191.837H255.4C255.32 190.957 254.947 190.264 254.28 189.757C253.64 189.224 252.773 188.957 251.68 188.957C250.667 188.957 249.88 189.144 249.32 189.517C248.787 189.89 248.52 190.41 248.52 191.077C248.52 191.824 248.893 192.397 249.64 192.797C250.387 193.17 251.547 193.557 253.12 193.957C254.72 194.357 256.04 194.77 257.08 195.197C258.12 195.624 259.013 196.29 259.76 197.197C260.533 198.077 260.933 199.25 260.96 200.717C260.96 201.997 260.6 203.144 259.88 204.157C259.187 205.17 258.173 205.97 256.84 206.557C255.533 207.117 254 207.397 252.24 207.397ZM275.397 207.397C273.264 207.397 271.344 206.93 269.637 205.997C267.93 205.037 266.584 203.69 265.597 201.957C264.637 200.224 264.157 198.224 264.157 195.957C264.157 193.69 264.65 191.69 265.637 189.957C266.65 188.224 268.024 186.89 269.757 185.957C271.49 184.997 273.424 184.517 275.557 184.517C277.69 184.517 279.624 184.997 281.357 185.957C283.09 186.89 284.45 188.224 285.437 189.957C286.45 191.69 286.957 193.69 286.957 195.957C286.957 198.224 286.437 200.224 285.397 201.957C284.384 203.69 282.997 205.037 281.237 205.997C279.504 206.93 277.557 207.397 275.397 207.397ZM275.397 202.517C276.41 202.517 277.357 202.277 278.237 201.797C279.144 201.29 279.864 200.544 280.397 199.557C280.93 198.57 281.197 197.37 281.197 195.957C281.197 193.85 280.637 192.237 279.517 191.117C278.424 189.97 277.077 189.397 275.477 189.397C273.877 189.397 272.53 189.97 271.437 191.117C270.37 192.237 269.837 193.85 269.837 195.957C269.837 198.064 270.357 199.69 271.397 200.837C272.464 201.957 273.797 202.517 275.397 202.517ZM296.665 188.117C297.385 187.05 298.371 186.184 299.625 185.517C300.905 184.85 302.358 184.517 303.985 184.517C305.878 184.517 307.585 184.984 309.105 185.917C310.651 186.85 311.865 188.184 312.745 189.917C313.651 191.624 314.105 193.61 314.105 195.877C314.105 198.144 313.651 200.157 312.745 201.917C311.865 203.65 310.651 204.997 309.105 205.957C307.585 206.917 305.878 207.397 303.985 207.397C302.331 207.397 300.878 207.077 299.625 206.437C298.398 205.77 297.411 204.917 296.665 203.877V207.037H291.065V177.437H296.665V188.117ZM308.385 195.877C308.385 194.544 308.105 193.397 307.545 192.437C307.011 191.45 306.291 190.704 305.385 190.197C304.505 189.69 303.545 189.437 302.505 189.437C301.491 189.437 300.531 189.704 299.625 190.237C298.745 190.744 298.025 191.49 297.465 192.477C296.931 193.464 296.665 194.624 296.665 195.957C296.665 197.29 296.931 198.45 297.465 199.437C298.025 200.424 298.745 201.184 299.625 201.717C300.531 202.224 301.491 202.477 302.505 202.477C303.545 202.477 304.505 202.21 305.385 201.677C306.291 201.144 307.011 200.384 307.545 199.397C308.105 198.41 308.385 197.237 308.385 195.877ZM323.774 188.317C324.494 187.144 325.427 186.224 326.574 185.557C327.747 184.89 329.081 184.557 330.574 184.557V190.437H329.094C327.334 190.437 326.001 190.85 325.094 191.677C324.214 192.504 323.774 193.944 323.774 195.997V207.037H318.174V184.877H323.774V188.317ZM354.946 195.477C354.946 196.277 354.893 196.997 354.786 197.637H338.586C338.719 199.237 339.279 200.49 340.266 201.397C341.253 202.304 342.466 202.757 343.906 202.757C345.986 202.757 347.466 201.864 348.346 200.077H354.386C353.746 202.21 352.519 203.97 350.706 205.357C348.893 206.717 346.666 207.397 344.026 207.397C341.893 207.397 339.973 206.93 338.266 205.997C336.586 205.037 335.266 203.69 334.306 201.957C333.373 200.224 332.906 198.224 332.906 195.957C332.906 193.664 333.373 191.65 334.306 189.917C335.239 188.184 336.546 186.85 338.226 185.917C339.906 184.984 341.839 184.517 344.026 184.517C346.133 184.517 348.013 184.97 349.666 185.877C351.346 186.784 352.639 188.077 353.546 189.757C354.479 191.41 354.946 193.317 354.946 195.477ZM349.146 193.877C349.119 192.437 348.599 191.29 347.586 190.437C346.573 189.557 345.333 189.117 343.866 189.117C342.479 189.117 341.306 189.544 340.346 190.397C339.413 191.224 338.839 192.384 338.626 193.877H349.146ZM242.32 253.957C242.32 251.184 242.92 248.717 244.12 246.557C245.32 244.37 246.987 242.677 249.12 241.477C251.28 240.25 253.72 239.637 256.44 239.637C259.773 239.637 262.627 240.517 265 242.277C267.373 244.037 268.96 246.437 269.76 249.477H262.24C261.68 248.304 260.88 247.41 259.84 246.797C258.827 246.184 257.667 245.877 256.36 245.877C254.253 245.877 252.547 246.61 251.24 248.077C249.933 249.544 249.28 251.504 249.28 253.957C249.28 256.41 249.933 258.37 251.24 259.837C252.547 261.304 254.253 262.037 256.36 262.037C257.667 262.037 258.827 261.73 259.84 261.117C260.88 260.504 261.68 259.61 262.24 258.437H269.76C268.96 261.477 267.373 263.877 265 265.637C262.627 267.37 259.773 268.237 256.44 268.237C253.72 268.237 251.28 267.637 249.12 266.437C246.987 265.21 245.32 263.517 244.12 261.357C242.92 259.197 242.32 256.73 242.32 253.957ZM280.789 262.757H289.749V268.037H273.949V239.957H280.789V262.757ZM299.851 245.437V251.117H309.011V256.397H299.851V262.557H310.211V268.037H293.011V239.957H310.211V245.437H299.851ZM328.972 268.037L323.132 257.437H321.492V268.037H314.652V239.957H326.132C328.345 239.957 330.225 240.344 331.772 241.117C333.345 241.89 334.519 242.957 335.292 244.317C336.065 245.65 336.452 247.144 336.452 248.797C336.452 250.664 335.919 252.33 334.852 253.797C333.812 255.264 332.265 256.304 330.212 256.917L336.692 268.037H328.972ZM321.492 252.597H325.732C326.985 252.597 327.919 252.29 328.532 251.677C329.172 251.064 329.492 250.197 329.492 249.077C329.492 248.01 329.172 247.17 328.532 246.557C327.919 245.944 326.985 245.637 325.732 245.637H321.492V252.597ZM365.866 268.037H359.026L347.586 250.717V268.037H340.746V239.957H347.586L359.026 257.357V239.957H365.866V268.037ZM377.664 239.957V268.037H370.824V239.957H377.664Z" fill="#85CAF1"/>
</svg>
