<svg width="345" height="155" viewBox="0 0 345 155" fill="none" xmlns="http://www.w3.org/2000/svg">
<path d="M173.25 15.3383C173.25 15.3383 95.7564 77.5306 172.756 139.723C172.756 139.723 159.923 145.854 147.09 150.582C134.256 155.31 0 153.05 0 153.05C0 153.05 36.4855 84.285 49.8526 59.7613C63.2196 35.2376 95.2628 -28.0976 173.25 15.3383Z" fill="#101010"/>
<path d="M172.756 14.9649C172.756 14.9649 240.378 78.0242 173.246 140.088C173.246 140.088 185.969 146.255 198.693 151.011C211.417 155.767 344.526 153.494 344.526 153.494C344.526 153.494 308.352 84.3209 295.099 59.6516C281.846 34.9823 250.077 -28.729 172.756 14.9649Z" fill="#F5F5F5"/>
<path fill-rule="evenodd" clip-rule="evenodd" d="M173.012 15.8262C155.797 26.739 138.434 58.3008 138.434 77.6682C138.434 102.684 155.797 130.337 173.012 139.629V15.8262Z" fill="#85CAF1"/>
<path fill-rule="evenodd" clip-rule="evenodd" d="M173.012 15.8259C188.259 26.7386 203.638 58.3007 203.638 77.6682C203.638 102.685 188.259 130.338 173.012 139.629V15.8259Z" fill="#85CAF1"/>
<circle cx="61.6986" cy="134.787" r="10.3654" fill="#F5F5F5"/>
<circle cx="90.3268" cy="134.787" r="10.3654" fill="#F5F5F5"/>
<circle cx="118.955" cy="134.787" r="10.3654" fill="#F5F5F5"/>
<circle cx="225.57" cy="134.787" r="10.3654" fill="#0F0F0F"/>
<circle cx="254.199" cy="134.787" r="10.3654" fill="#0F0F0F"/>
<circle cx="282.827" cy="134.787" r="10.3654" fill="#0F0F0F"/>
</svg>
