<svg width="856" height="406" viewBox="0 0 856 406" fill="none" xmlns="http://www.w3.org/2000/svg">
<path d="M273.118 21C353.705 21 718.755 21 826.177 21C842.746 21 856 34.4315 856 51V86C856 102.569 842.569 116 826 116H303.118C286.549 116 273.118 102.569 273.118 86V73.699C273.118 73.699 273.118 73.699 273.118 73.699C273.118 73.6989 273.118 52.4303 273.118 44.8682C273.118 37.306 178.353 21 273.118 21Z" fill="#0054AA"/>
<path d="M273.118 134C353.705 134 718.755 134 826.177 134C842.746 134 856 147.431 856 164V204C856 220.569 842.568 234 826 234H303.118C286.549 234 273.118 220.569 273.118 204V189.473C273.118 189.473 273.118 189.473 273.118 189.473C273.118 189.473 273.118 167.085 273.118 159.124C273.118 151.164 178.353 134 273.118 134Z" fill="#0054AA"/>
<path d="M273.118 255C353.705 255 718.755 255 826.177 255C842.746 255 856 268.431 856 285V346C856 362.569 842.569 376 826 376H303.118C286.549 376 273.118 362.569 273.118 346V322.122C273.118 322.122 273.118 295.032 273.118 285.4C273.118 275.769 178.353 255 273.118 255Z" fill="#0054AA"/>
<rect width="194" height="406" rx="45" fill="#0054AA"/>
</svg>
