<svg width="188" height="187" viewBox="0 0 188 187" fill="none" xmlns="http://www.w3.org/2000/svg">
<ellipse cx="93.6964" cy="93.7512" rx="93.3248" ry="92.9006" fill="#0F0F0F"/>
<path d="M80.6159 101.15C42.9904 80.6586 50.2261 39.3168 50.2261 39.3168C50.2261 39.3168 64.6974 27.4535 80.6159 35.3623C80.6159 35.3623 99.7904 42.9116 108.473 22.061C108.473 22.061 128.009 28.8913 138.501 40.0357C138.501 40.0357 144.652 82.4561 107.75 101.15V110.137C150.078 113.013 154.781 117.687 154.781 117.687L94.3637 170.532L34.3076 117.687C42.9904 112.654 80.6159 109.418 80.6159 109.418V101.15Z" fill="#FFD595"/>
<path d="M107.271 110.5C107.271 110.5 123.508 111.353 137.94 113.5V53.4517C137.94 53.4517 137.58 85.2925 107.271 100.676V110.5Z" fill="#85CAF1"/>
<path d="M81.5 109.5C81.5 109.5 64.3239 110.853 50.2812 113L50.2813 53.4517C50.2813 53.4517 52.0105 85.6157 81.5 101V109.5Z" fill="#85CAF1"/>
<path d="M94.1207 0.850586C51.8603 0.850574 50.4277 39.5193 50.4277 39.5193C50.4277 39.5193 62.6045 29.136 76.93 33.7906C76.93 33.7906 98.4723 45.7726 108.5 22.4998C108.5 22.4998 127.786 29.136 137.814 39.8773C137.814 39.8773 136.381 0.850598 94.1207 0.850586Z" fill="#85CAF1"/>
<path d="M16.4912 146.142C16.4912 146.142 18.6609 123.899 33.8488 117.083L93.8771 169.103L154.267 117.083C169.093 123.181 170.901 145.783 170.901 145.783C170.901 145.783 147.396 187.479 93.8771 186.639C40.3579 185.8 16.4912 146.142 16.4912 146.142Z" fill="#C4C4C4"/>
</svg>
