<svg width="191" height="190" viewBox="0 0 191 190" fill="none" xmlns="http://www.w3.org/2000/svg">
<ellipse cx="95.5542" cy="95.0853" rx="95.4458" ry="94.1732" fill="#8B0000"/>
<path d="M18.0189 149.907C18.0189 149.907 15.4605 106.226 69.9168 110.264L94.5 138.5L119.987 110.264C175.54 106.593 172.982 149.54 172.982 149.54C172.982 149.54 147.398 189 95.3155 189C43.2326 189 18.0189 149.907 18.0189 149.907Z" fill="#C4C4C4"/>
<path d="M80.9192 101.646C45.2496 84.4 50.0526 38.8998 50.0526 38.8998L52.2695 40.7345C52.2695 40.7345 64.8118 27.4563 80.9192 35.5973C80.9192 35.5973 100.972 43.7634 109.738 21.2959C109.738 21.2959 132.283 28.7281 141.15 43.0386C141.15 43.0386 145.006 84.033 109.368 101.646C109.368 101.646 107.5 106.038 111.564 110.441H119.965L94.2201 138.707L69.9254 110.441H79.7872C84.9598 105.304 80.9192 101.646 80.9192 101.646Z" fill="#FFD595"/>
<path d="M94.43 0.972043C50.2112 2.87923 49.8364 39.4962 49.8364 39.4962L52.4596 41.0324C52.4596 41.0324 60.7038 30.7234 76.4427 33.7748C76.4427 33.7748 99.6763 47.1247 109.794 21.1877C109.794 21.1877 133.777 29.9605 141.272 43.3104C141.272 43.3104 138.649 -0.935149 94.43 0.972043Z" fill="#FFB932"/>
</svg>
