<svg width="103" height="108" viewBox="0 0 103 108" fill="none" xmlns="http://www.w3.org/2000/svg">
<path d="M24.8364 28.5942C13.8697 41.1975 12.4265 59.3872 20.0597 73.4623C20.0597 73.4623 30.2085 70.6701 33.123 73.4623C36.2163 76.0587 34.0563 88.0289 34.0563 88.0289C48.5542 96.5373 67.2336 93.8291 78.9159 80.4034C89.7584 67.9429 88.8018 44.9001 84.0348 36.0379C84.0348 36.0379 72.9488 39.4044 69.8768 36.4613C67.7851 34.4575 69.8768 20.9919 69.8768 20.9919C55.3548 12.3951 36.5757 15.1031 24.8364 28.5942ZM28.1738 56.5847C27.5266 54.5472 43.21 51.0359 44.2588 52.0407C45.3076 53.0455 41.7842 69.5674 39.9282 68.9183C38.0723 67.62 38.5478 59.6368 38.0723 59.1812C37.462 58.5966 28.7925 58.5321 28.1738 56.5847ZM70.2422 74.1114C61.5811 83.1994 52.5118 82.504 44.2588 78.6554L73.3355 47.4967C77.7371 55.7714 78.2847 64.3743 70.2422 74.1114ZM65.293 42.3036C65.9032 44.2246 50.0208 48.2753 49.208 47.4967C48.3159 46.642 50.4874 32.54 53.5386 30.6191C55.3693 30.6191 55.7118 40.0399 56.0132 40.3562C56.3146 40.6724 64.6827 41.023 65.293 42.3036Z" fill="#0054AA"/>
<path fill-rule="evenodd" clip-rule="evenodd" d="M28.6555 86.2445C28.6555 86.2445 32.4451 75.6794 31.615 74.7082C30.7848 73.7371 19.7808 76.5763 19.7808 76.5763L19.7931 76.5898C16.4537 77.319 13.9448 80.4228 13.9448 84.1412C13.9448 88.4012 17.2379 91.8546 21.3001 91.8546C24.9073 91.8546 27.908 90.8411 28.535 86.1133L28.6555 86.2445Z" fill="#0054AA"/>
<path fill-rule="evenodd" clip-rule="evenodd" d="M75.0958 19.2403C75.0958 19.2403 71.4056 30.0107 72.214 31.0007C73.0223 31.9907 83.7377 29.0963 83.7377 29.0963L83.7262 29.0832C86.9776 28.3396 89.4204 25.1756 89.4204 21.3852C89.4204 17.0424 86.2137 13.5219 82.2581 13.5219C78.7457 13.5219 75.8238 14.555 75.2131 19.3741L75.0958 19.2403Z" fill="#0054AA"/>
</svg>
