<svg width="129" height="97" viewBox="0 0 129 97" fill="none" xmlns="http://www.w3.org/2000/svg">
<g filter="url(#filter0_d)">
<path d="M46.3517 44.4989C59.7189 44.4989 70.5526 34.5388 70.5526 22.2495C70.5526 9.96012 59.7189 0 46.3517 0C32.9844 0 22.1507 9.96012 22.1507 22.2495C22.1507 34.5388 32.9844 44.4989 46.3517 44.4989ZM63.2923 50.0613H60.1348C55.9375 51.8343 51.2675 52.8425 46.3517 52.8425C41.4358 52.8425 36.7847 51.8343 32.5685 50.0613H29.411C15.382 50.0613 4 60.5255 4 73.4233V80.6543C4 85.2607 8.065 88.9979 13.0754 88.9979H65.0507C64.5969 87.8159 64.4078 86.5644 64.5591 85.2954L65.8448 74.7095L66.0716 72.7801L67.5653 71.4069L82.1804 57.9703C77.5482 53.1554 70.8362 50.0613 63.2923 50.0613ZM71.8572 75.3179L70.5715 85.9212C70.3635 87.6942 71.9895 89.1891 73.8991 88.9805L85.4135 87.7985L111.486 63.8282L97.9299 51.365L71.8572 75.3179ZM123.681 46.7413L116.515 40.1533C114.757 38.5368 111.883 38.5368 110.125 40.1533L102.978 46.7239L102.203 47.4366L115.778 59.8997L123.681 52.6339C125.44 51 125.44 48.3752 123.681 46.7413Z" fill="#85CAF1"/>
<path d="M64.5264 85.2915L64.5264 85.2915C64.3764 86.5503 64.5598 87.7917 65.0029 88.965H13.0754C8.08051 88.965 4.0329 85.24 4.0329 80.6543V73.4233C4.0329 60.5462 15.3975 50.0942 29.411 50.0942H32.5618C36.7803 51.8672 41.4337 52.8754 46.3517 52.8754C51.2696 52.8754 55.9418 51.8673 60.1415 50.0942H63.2923C70.8144 50.0942 77.508 53.1741 82.1333 57.9689L67.543 71.3827L66.0494 72.7559L66.0404 72.7642L66.039 72.7763L65.8121 74.7056L65.8121 74.7057L64.5264 85.2915ZM73.8958 88.9478L73.8956 88.9478C72.0037 89.1544 70.399 87.6739 70.6042 85.925L71.8884 75.3339L97.9299 51.4097L111.438 63.8282L85.3993 87.7669L73.8958 88.9478ZM70.5197 22.2495C70.5197 34.5181 59.7034 44.466 46.3517 44.466C32.9999 44.466 22.1836 34.5181 22.1836 22.2495C22.1836 9.98083 32.9999 0.0328987 46.3517 0.0328987C59.7034 0.0328987 70.5197 9.98083 70.5197 22.2495ZM116.493 40.1776L123.659 46.7654C125.403 48.3863 125.403 50.9889 123.659 52.6098L115.778 59.8551L102.252 47.4366L103 46.7481L110.147 40.1776C111.893 38.5726 114.747 38.5726 116.493 40.1776Z" stroke="#01BAD9" stroke-width="0.0657974"/>
</g>
<defs>
<filter id="filter0_d" x="0" y="0" width="129" height="97" filterUnits="userSpaceOnUse" color-interpolation-filters="sRGB">
<feFlood flood-opacity="0" result="BackgroundImageFix"/>
<feColorMatrix in="SourceAlpha" type="matrix" values="0 0 0 0 0 0 0 0 0 0 0 0 0 0 0 0 0 0 127 0"/>
<feOffset dy="4"/>
<feGaussianBlur stdDeviation="2"/>
<feColorMatrix type="matrix" values="0 0 0 0 0 0 0 0 0 0 0 0 0 0 0 0 0 0 0.25 0"/>
<feBlend mode="normal" in2="BackgroundImageFix" result="effect1_dropShadow"/>
<feBlend mode="normal" in="SourceGraphic" in2="effect1_dropShadow" result="shape"/>
</filter>
</defs>
</svg>
