<svg width="89" height="87" viewBox="0 0 89 87" fill="none" xmlns="http://www.w3.org/2000/svg">
<path d="M44.4555 0C19.8915 0 0 19.488 0 43.5C0 67.512 19.8915 87 44.4555 87C69.064 87 89 67.512 89 43.5C89 19.488 69.064 0 44.4555 0ZM28.925 26.1C32.6185 26.1 35.6 29.0145 35.6 32.625C35.6 36.2355 32.6185 39.15 28.925 39.15C25.2315 39.15 22.25 36.2355 22.25 32.625C22.25 29.0145 25.2315 26.1 28.925 26.1ZM44.5 69.6C34.354 69.6 25.721 62.379 22.25 52.2H66.75C63.279 62.379 54.646 69.6 44.5 69.6ZM60.075 39.15C56.3815 39.15 53.4 36.2355 53.4 32.625C53.4 29.0145 56.3815 26.1 60.075 26.1C63.7685 26.1 66.75 29.0145 66.75 32.625C66.75 36.2355 63.7685 39.15 60.075 39.15Z" fill="#0054AA"/>
</svg>
