<svg width="195" height="190" viewBox="0 0 195 190" fill="none" xmlns="http://www.w3.org/2000/svg">
<ellipse cx="97.1427" cy="94.9449" rx="97.1427" ry="94.9449" fill="#021855"/>
<path d="M16.4648 147.647C16.4648 147.647 17.6178 105.148 73.3427 110.723L96.017 138.599L119.844 110.723C175.569 104.776 178.644 147.275 178.644 147.275C178.644 147.275 153.572 190.729 97.3599 189.877C41.148 189.025 16.4648 147.647 16.4648 147.647Z" fill="#C4C4C4"/>
<path d="M81.8807 101.327C44.6006 83.8319 49.6205 37.6739 49.6205 37.6739L51.9374 39.5351C51.9374 39.5351 64.2942 25.3899 81.8807 34.3237C81.8807 34.3237 102.347 42.1407 111.614 20.5508C111.614 20.5508 134.574 27.6234 143.841 42.1408C143.841 42.1408 148.861 83.4596 111.614 101.327C111.614 101.327 108.702 106.539 112.949 111.005H119.9L95.7822 138.924L73.1757 111.005H80.5125C85.9186 105.794 81.8807 101.327 81.8807 101.327Z" fill="#FFD595"/>
<path d="M95.9887 0.0592625C50.6024 1.9451 50.2178 38.1521 50.2178 38.1521L52.9102 39.6711C52.9102 39.6711 61.372 29.4775 77.5265 32.4948C77.5265 32.4948 101.374 45.6953 111.759 20.0486C111.759 20.0486 136.375 28.7232 144.067 41.9237C144.067 41.9237 141.375 -1.82658 95.9887 0.0592625Z" fill="#FFB932"/>
<rect x="87.2637" y="124.127" width="18.9346" height="20.5508" fill="#0054AA"/>
<path d="M89.7818 143.856H103.729L110.314 189.157C97.1426 190.999 83.9707 188.789 83.9707 188.789L89.7818 143.856Z" fill="#0054AA"/>
</svg>
