<svg width="82" height="97" viewBox="0 0 82 97" fill="none" xmlns="http://www.w3.org/2000/svg">
<g filter="url(#filter0_d)">
<rect x="4" width="74" height="89" fill="#0054AA"/>
<path d="M68.75 11.125H53.3333C53.3333 4.98887 47.8026 0 41 0C34.1974 0 28.6667 4.98887 28.6667 11.125H13.25C8.14323 11.125 4 14.8623 4 19.4688V80.6562C4 85.2627 8.14323 89 13.25 89H68.75C73.8568 89 78 85.2627 78 80.6562V19.4688C78 14.8623 73.8568 11.125 68.75 11.125ZM41 6.95312C43.563 6.95312 45.625 8.81309 45.625 11.125C45.625 13.4369 43.563 15.2969 41 15.2969C38.437 15.2969 36.375 13.4369 36.375 11.125C36.375 8.81309 38.437 6.95312 41 6.95312ZM68.75 79.6133C68.75 80.1869 68.2297 80.6562 67.5938 80.6562H14.4062C13.7703 80.6562 13.25 80.1869 13.25 79.6133V20.5117C13.25 19.9381 13.7703 19.4688 14.4062 19.4688H22.5V25.7266C22.5 26.8738 23.5406 27.8125 24.8125 27.8125H57.1875C58.4594 27.8125 59.5 26.8738 59.5 25.7266V19.4688H67.5938C68.2297 19.4688 68.75 19.9381 68.75 20.5117V79.6133Z" fill="#85CAF1"/>
</g>
<defs>
<filter id="filter0_d" x="0" y="0" width="82" height="97" filterUnits="userSpaceOnUse" color-interpolation-filters="sRGB">
<feFlood flood-opacity="0" result="BackgroundImageFix"/>
<feColorMatrix in="SourceAlpha" type="matrix" values="0 0 0 0 0 0 0 0 0 0 0 0 0 0 0 0 0 0 127 0"/>
<feOffset dy="4"/>
<feGaussianBlur stdDeviation="2"/>
<feColorMatrix type="matrix" values="0 0 0 0 0 0 0 0 0 0 0 0 0 0 0 0 0 0 0.25 0"/>
<feBlend mode="normal" in2="BackgroundImageFix" result="effect1_dropShadow"/>
<feBlend mode="normal" in="SourceGraphic" in2="effect1_dropShadow" result="shape"/>
</filter>
</defs>
</svg>
