<svg width="98" height="91" viewBox="0 0 98 91" fill="none" xmlns="http://www.w3.org/2000/svg">
<path fill-rule="evenodd" clip-rule="evenodd" d="M39.1582 0.324219C17.7115 0.324219 0.30127 14.3475 0.30127 31.6456C0.30127 47.4262 14.8153 60.4544 33.6671 62.607L25.6664 79.7921L53.5084 60.7367C67.8521 56.1211 78.8736 44.8502 78.8736 31.6456C78.8736 14.3546 60.6115 0.324219 39.1582 0.324219Z" fill="#0054AA"/>
<path fill-rule="evenodd" clip-rule="evenodd" d="M97.8896 55.8538C97.8896 47.9211 90.9308 39.7062 82.8907 35.6128C80.6366 49.375 70.2835 62.0433 53.9479 66.9977L46.1699 71.5286C49.1448 73.9282 52.7881 75.8407 56.8769 77.0899L80.7153 91.0003L72.1772 78.4661C86.7043 76.8782 97.8896 67.3788 97.8896 55.8538Z" fill="#0054AA"/>
<path d="M39.7421 29.9264C35.0432 28.7698 33.5321 27.5739 33.5321 25.7115C33.5321 23.5746 35.6228 22.0847 39.1211 22.0847C42.8058 22.0847 44.172 23.751 44.2962 26.2016H48.8709C48.726 22.8296 46.5525 19.7321 42.2262 18.7323V14.439H36.0161V18.6735C32.0003 19.4969 28.771 21.967 28.771 25.7507C28.771 30.2793 32.7248 32.5338 38.5001 33.8473C43.6752 35.0236 44.7102 36.7487 44.7102 38.572C44.7102 39.9247 43.6959 42.0811 39.1211 42.0811C34.8569 42.0811 33.1802 40.2775 32.9525 37.9642H28.3984C28.6468 42.2576 32.0417 44.6689 36.0161 45.4727V49.7268H42.2262V45.5119C46.2627 44.7865 49.4712 42.5712 49.4712 38.5523C49.4712 32.9847 44.4411 31.0831 39.7421 29.9264Z" fill="#F5F5F5"/>
</svg>
