<svg width="91" height="98" viewBox="0 0 91 98" fill="none" xmlns="http://www.w3.org/2000/svg">
<path d="M65.0885 55.4969C83.7293 56.0595 82.882 61.8157 87.1185 67.3447C91.3551 72.8737 92.2024 94.1999 85.3022 96.5695C78.402 98.939 15.0975 98.1492 7.4717 95.7796C-0.154108 93.41 -0.769121 76.3145 3.08482 70.1255C7.58108 62.8112 16.792 55.4969 22.7232 55.4969C24.4178 56.2867 24.4178 58.2128 24.4178 61.026V61.0261V70.1255C20.5638 71.2507 16.792 76.823 16.792 81.5624C16.792 86.3017 19.3339 88.6709 24.4178 89.4608C29.5563 89.4608 31.1962 90.2506 36.2801 86.3013C39.6693 83.9317 38.822 77.6129 37.1274 75.2435C37.1274 75.2435 36.2801 72.8737 29.6308 70.1255C29.6308 70.1255 29.5016 68.1346 29.5016 64.9753C29.5016 61.8157 28.6543 54.7072 34.5855 55.4971C42.2112 57.8667 50.6843 57.8667 54.9209 55.4971C61.6993 54.7072 60.0047 60.8097 60.0047 64.1855C49.7275 65.8734 46.4478 74.5833 46.4478 80.7723V89.4608H58.3101V84.7216H52.3789C52.3789 84.7216 52.9118 68.9244 62.5466 68.9244C72.1815 68.9244 71.867 83.9317 71.867 83.9317H67.3172V89.4608H77.7982L78.6455 83.9317C80.3401 75.1892 76.213 66.4358 65.9359 64.1853C65.9359 61.9347 65.7309 57.1848 65.0885 55.4969Z" fill="#0054AA"/>
<ellipse cx="46.448" cy="23.6824" rx="25.4192" ry="23.6824" fill="#0054AA"/>
</svg>
